<?xml version="1.0" encoding="iso-8859-1"?>
<svg width="36" height="36" viewBox="0 0 36 36" fill="none" xmlns="http://www.w3.org/2000/svg">
  <rect width="36" height="36" rx="6" fill="#231F20" />
  <mask id="mask0_2402_19213" style="mask-type:alpha" maskUnits="userSpaceOnUse" x="6" y="6"
    width="24" height="24">
    <rect x="6" y="6" width="24" height="24" fill="#D9D9D9" />
  </mask>
  <g mask="url(#mask0_2402_19213)">
    <path
      d="M10 23V25H26V23H10ZM10 12H12.2C12.1167 11.85 12.0625 11.6917 12.0375 11.525C12.0125 11.3583 12 11.1833 12 11C12 10.1667 12.2917 9.45833 12.875 8.875C13.4583 8.29167 14.1667 8 15 8C15.5 8 15.9625 8.12917 16.3875 8.3875C16.8125 8.64583 17.1833 8.96667 17.5 9.35L18 10L18.5 9.35C18.8 8.95 19.1667 8.625 19.6 8.375C20.0333 8.125 20.5 8 21 8C21.8333 8 22.5417 8.29167 23.125 8.875C23.7083 9.45833 24 10.1667 24 11C24 11.1833 23.9875 11.3583 23.9625 11.525C23.9375 11.6917 23.8833 11.85 23.8 12H26C26.55 12 27.0208 12.1958 27.4125 12.5875C27.8042 12.9792 28 13.45 28 14V25C28 25.55 27.8042 26.0208 27.4125 26.4125C27.0208 26.8042 26.55 27 26 27H10C9.45 27 8.97917 26.8042 8.5875 26.4125C8.19583 26.0208 8 25.55 8 25V14C8 13.45 8.19583 12.9792 8.5875 12.5875C8.97917 12.1958 9.45 12 10 12ZM10 20H26V14H20.9L22.4 16.05C22.5667 16.2833 22.6333 16.5292 22.6 16.7875C22.5667 17.0458 22.4333 17.2583 22.2 17.425C21.9667 17.5917 21.7208 17.6542 21.4625 17.6125C21.2042 17.5708 20.9917 17.4417 20.825 17.225L18 13.4L15.175 17.225C15.0083 17.4417 14.7958 17.5708 14.5375 17.6125C14.2792 17.6542 14.0333 17.5917 13.8 17.425C13.5667 17.2583 13.4292 17.0458 13.3875 16.7875C13.3458 16.5292 13.4083 16.2833 13.575 16.05L15.05 14H10V20ZM15 12C15.2833 12 15.5208 11.9042 15.7125 11.7125C15.9042 11.5208 16 11.2833 16 11C16 10.7167 15.9042 10.4792 15.7125 10.2875C15.5208 10.0958 15.2833 10 15 10C14.7167 10 14.4792 10.0958 14.2875 10.2875C14.0958 10.4792 14 10.7167 14 11C14 11.2833 14.0958 11.5208 14.2875 11.7125C14.4792 11.9042 14.7167 12 15 12ZM21 12C21.2833 12 21.5208 11.9042 21.7125 11.7125C21.9042 11.5208 22 11.2833 22 11C22 10.7167 21.9042 10.4792 21.7125 10.2875C21.5208 10.0958 21.2833 10 21 10C20.7167 10 20.4792 10.0958 20.2875 10.2875C20.0958 10.4792 20 10.7167 20 11C20 11.2833 20.0958 11.5208 20.2875 11.7125C20.4792 11.9042 20.7167 12 21 12Z"
      fill="white" />
  </g>
</svg>